<svg width="28" height="25" viewBox="0 0 28 25" fill="none" xmlns="http://www.w3.org/2000/svg">
<path d="M2.15059 2.08206C2.44284 1.13225 2.58897 0.658653 3.02413 0.382061C3.4609 0.105469 4.06306 0.105469 5.26738 0.105469H22.7316C23.936 0.105469 24.5381 0.105469 24.9749 0.382061C25.4084 0.658653 25.5562 1.13225 25.8484 2.08206L27.7802 8.3628C27.9359 8.86901 28.0146 9.12082 27.9969 9.32696C27.975 9.58692 27.8577 9.83559 27.6602 10.0409C27.4627 10.2462 27.1941 10.3988 26.889 10.479C26.6481 10.5429 26.3205 10.5429 25.6638 10.5429C24.8079 10.5429 24.3792 10.5429 24.0211 10.4751C23.5246 10.3811 23.0628 10.1925 22.6738 9.92478C22.2849 9.65707 21.9799 9.31798 21.7842 8.93555C21.6413 8.65896 21.5723 8.32235 21.4358 7.65305C21.3973 7.46518 21.378 7.37124 21.3555 7.34645C21.3406 7.32974 21.3211 7.31614 21.2985 7.30676C21.2758 7.29738 21.2508 7.29249 21.2254 7.29249C21.2001 7.29249 21.175 7.29738 21.1524 7.30676C21.1298 7.31614 21.1103 7.32974 21.0954 7.34645C21.0729 7.37124 21.0536 7.46387 21.0151 7.65305L20.885 8.29104C20.7807 8.9053 20.4105 9.46929 19.8408 9.88193C19.2712 10.2946 18.5392 10.5289 17.7763 10.5429H17.4487C16.6857 10.5289 15.9538 10.2946 15.3841 9.88193C14.8145 9.46929 14.4443 8.9053 14.3399 8.29104L14.2099 7.65175C14.1713 7.46518 14.1521 7.37124 14.1296 7.34645C14.1147 7.32974 14.0951 7.31614 14.0725 7.30676C14.0499 7.29738 14.0249 7.29249 13.9995 7.29249C13.9741 7.29249 13.9491 7.29738 13.9265 7.30676C13.9039 7.31614 13.8843 7.32974 13.8694 7.34645C13.847 7.37124 13.8277 7.46387 13.7892 7.65305L13.6591 8.29104C13.5547 8.9053 13.1845 9.46929 12.6149 9.88193C12.0452 10.2946 11.3133 10.5289 10.5503 10.5429H10.2228C9.48817 10.5289 8.78169 10.3107 8.2212 9.92465C7.66071 9.53858 7.28011 9.00803 7.14291 8.42151C7.13131 8.37832 7.12167 8.3348 7.114 8.29104L6.98394 7.65175C6.9454 7.46518 6.92613 7.37124 6.90365 7.34645C6.88876 7.32974 6.86921 7.31614 6.8466 7.30676C6.82399 7.29738 6.79897 7.29249 6.77358 7.29249C6.7482 7.29249 6.72317 7.29738 6.70056 7.30676C6.67795 7.31614 6.6584 7.32974 6.64352 7.34645C6.62104 7.37124 6.60177 7.46387 6.56323 7.65305C6.42674 8.32366 6.35769 8.65765 6.21478 8.93555C6.01923 9.31783 5.71453 9.65682 5.32587 9.92452C4.9372 10.1922 4.47573 10.3809 3.97956 10.4751C3.61987 10.5429 3.19273 10.5429 2.33526 10.5429C1.6785 10.5429 1.35093 10.5429 1.11006 10.479C0.804902 10.3988 0.536279 10.2462 0.338805 10.0409C0.141331 9.83559 0.0240545 9.58692 0.00208577 9.32696C-0.0139718 9.12082 0.0631047 8.86901 0.218864 8.3628L2.15059 2.08206Z" fill="url(#paint0_linear_1864_6390)"/>
<path fill-rule="evenodd" clip-rule="evenodd" d="M2.78609 12.5001C2.75879 13.0493 2.75879 13.6938 2.75879 14.4571V22.2852C2.75879 23.5155 2.75879 24.13 3.22928 24.5123C3.69977 24.8945 4.45608 24.8945 5.97031 24.8945H10.7876V19.6758C10.7876 19.3298 10.9568 18.9979 11.2579 18.7533C11.5591 18.5086 11.9675 18.3711 12.3934 18.3711H15.6049C16.0308 18.3711 16.4392 18.5086 16.7403 18.7533C17.0415 18.9979 17.2106 19.3298 17.2106 19.6758V24.8945H22.0279C23.5422 24.8945 24.2985 24.8945 24.769 24.5123C25.2395 24.13 25.2395 23.5155 25.2395 22.2852V14.4571C25.2395 13.6938 25.2395 13.0493 25.2122 12.5001C24.626 12.5001 24.0271 12.4857 23.4731 12.3813C22.651 12.2257 21.8826 11.9216 21.225 11.4915C20.2873 12.1047 19.1054 12.4753 17.8321 12.4988L17.6297 12.5001H17.3921C16.155 12.4768 14.962 12.1217 13.9991 11.4902C13.0614 12.1034 11.8795 12.474 10.6061 12.4974L10.4038 12.4988H10.1662C8.92923 12.4758 7.73633 12.1213 6.77319 11.4902C6.12447 11.9143 5.36012 12.2209 4.52513 12.38C3.97114 12.4844 3.37219 12.4974 2.78609 12.4988" fill="url(#paint1_linear_1864_6390)"/>
<defs>
<linearGradient id="paint0_linear_1864_6390" x1="39.2626" y1="-1.79415" x2="22.9693" y2="18.6532" gradientUnits="userSpaceOnUse">
<stop stop-color="#FFA800"/>
<stop offset="1" stop-color="#FF2525"/>
</linearGradient>
<linearGradient id="paint1_linear_1864_6390" x1="34.2827" y1="9.05065" x2="13.4327" y2="25.4093" gradientUnits="userSpaceOnUse">
<stop stop-color="#FFA800"/>
<stop offset="1" stop-color="#FF2525"/>
</linearGradient>
</defs>
</svg>
