<svg width="17" height="14" viewBox="0 0 17 14" fill="none" xmlns="http://www.w3.org/2000/svg">
<path d="M15.4309 0.717285C16.2979 0.717285 17 1.41005 17 2.26364V4.06801C17 5.62733 16.5096 7.14832 15.5962 8.42164C14.6829 9.69496 13.3916 10.658 11.9 11.1782V12.026C11.9 12.3592 11.7657 12.6788 11.5266 12.9145C11.2875 13.1501 10.9632 13.2825 10.625 13.2825H6.375C6.03685 13.2825 5.71255 13.1501 5.47344 12.9145C5.23433 12.6788 5.1 12.3592 5.1 12.026V11.1782C3.6084 10.658 2.31708 9.69496 1.40376 8.42164C0.490438 7.14832 1.92124e-05 5.62733 0 4.06801V2.26364C0 1.40921 0.70295 0.717285 1.5691 0.717285H15.4309Z" fill="#F8F8F8"/>
</svg>
