<svg width="18" height="20" viewBox="0 0 18 20" fill="none" xmlns="http://www.w3.org/2000/svg">
<path d="M6.82457 16.3024H7.91229V12.2253C8.36571 12.2253 8.751 12.0767 9.06814 11.7795C9.38529 11.4823 9.54386 11.1209 9.54386 10.6952V7.63735H8.45614V10.6952H7.91229V7.63735H6.82457V10.6952H6.28071V7.63735H5.19171V10.6952C5.19171 11.1209 5.35029 11.4823 5.66743 11.7795C5.98457 12.0767 6.37029 12.2253 6.82457 12.2253V16.3024ZM11.1754 16.3024H12.2631V7.63735C11.6717 7.63735 11.1617 7.83695 10.7331 8.23614C10.3029 8.63534 10.0877 9.11526 10.0877 9.6759V12.7349H11.1754V16.3024ZM0 19.5V6.8494L9 0.5L18 6.8494V19.5H0Z" fill="#F8F8F8"/>
</svg>
